<?xml version="1.0" encoding="utf-8"?>
<!-- Generator: Adobe Illustrator 28.2.0, SVG Export Plug-In . SVG Version: 6.00 Build 0)  -->
<svg version="1.1" id="Layer_1" xmlns="http://www.w3.org/2000/svg" xmlns:xlink="http://www.w3.org/1999/xlink" x="0px" y="0px"
	 viewBox="0 0 600 115.8" style="enable-background:new 0 0 600 115.8;" xml:space="preserve">
<style type="text/css">
	.st0{fill:#81C784;}
	.st1{fill:#2E7D32;}
	.st2{fill:#FFFFFF;}
</style>
<g id="Ebene_2">
	<g id="Ebene_1-2">
		<polygon class="st0" points="204.4,47.3 81.3,0 81.3,94.7 		"/>
		<polygon class="st1" points="123.1,47.3 0,0 0,94.7 		"/>
		<path class="st2" d="M221.6,92V2.7h12.9L268,80.5l34.3-77.8h12.2V92h-8V9.5h-0.2L272.1,92h-8L229.9,9.9h-0.2V92H221.6z"/>
		<path class="st2" d="M369.6,48.2c-0.7-10.2-5.9-13.4-14.7-13.4c-7.8,0-14.2,2.4-15.2,10.8h-7.9C333.6,32.9,343.1,28,355,28
			c13.7,0,22.3,6.3,22,20.5V78c-0.1,4.8,0.4,9.8,0.6,14H370l-0.2-9.2h-0.2l-0.4,0.9c-2.7,5.2-11,10.2-19.4,10.2
			c-11.5,0-20.7-7-20.7-19.2c0-8.4,5.1-14.8,12.5-17.9c8.3-3.6,19.1-2.4,28.1-2.8L369.6,48.2z M351,87.1c16.2,0,19.3-13.4,18.6-26.3
			c-10.5,0.4-32.5-1.6-32.5,14C337.1,83.1,343.5,87.1,351,87.1z"/>
		<path class="st2" d="M397.5,36.7h-12.4v-6.8h12.4V16.7l7.4-3.2v16.5H419v6.8h-14.1v41.6c-0.1,5.7,2.8,8.8,8.5,8.8
			c2.2,0.1,4.3-0.2,6.4-0.7v6.4c-2.5,0.7-5,1.1-7.5,1.1c-15.7,0-14.9-10-14.9-18.4L397.5,36.7z"/>
		<path class="st2" d="M467.1,49c-0.6-9.5-6.7-14.1-17-14.1c-11.4,0-18.4,11.9-18.4,26s7,26.2,18.4,26.2c9.6,0,16.3-5.9,17-14.5h8
			c-2,14.2-10.1,21.3-24.2,21.3c-18.6,0-27.2-16-27.2-32.9s9.3-32.9,27.7-32.9c12.8,0,23.1,7.7,23.8,20.9L467.1,49z"/>
		<path class="st2" d="M494.1,39.3h0.2c3.8-7.1,11.3-11.5,19.4-11.3c20.3,0,21.9,17.9,21.9,25.1V92h-7.4V51.9
			c0-10.8-6.2-17.1-16.3-17.1c-12.2,0-17.8,10.3-17.8,21.4V92h-7.4V2.7h7.4L494.1,39.3z"/>
		<path class="st2" d="M550.3,29.9l20.9,52l20.8-52h8l-34.3,85.9h-8.2L567,92l-25.8-62.1H550.3z"/>
	</g>
</g>
</svg>
